<?xml version="1.0" encoding="UTF-8" standalone="no"?>
<!-- Created with Inkscape (http://www.inkscape.org/) -->

<svg
   width="45.973999mm"
   height="41.638107mm"
   viewBox="0 0 45.973999 41.638107"
   version="1.1"
   id="svg5"
   inkscape:version="1.2.2 (732a01da63, 2022-12-09)"
   sodipodi:docname="啓.svg"
   xmlns:inkscape="http://www.inkscape.org/namespaces/inkscape"
   xmlns:sodipodi="http://sodipodi.sourceforge.net/DTD/sodipodi-0.dtd"
   xmlns="http://www.w3.org/2000/svg"
   xmlns:svg="http://www.w3.org/2000/svg">
  <sodipodi:namedview
     id="namedview7"
     pagecolor="#ffffff"
     bordercolor="#000000"
     borderopacity="0.25"
     inkscape:showpageshadow="2"
     inkscape:pageopacity="0.0"
     inkscape:pagecheckerboard="0"
     inkscape:deskcolor="#d1d1d1"
     inkscape:document-units="mm"
     showgrid="false"
     inkscape:zoom="2.3786088"
     inkscape:cx="60.119176"
     inkscape:cy="89.968556"
     inkscape:window-width="1920"
     inkscape:window-height="1009"
     inkscape:window-x="-8"
     inkscape:window-y="-8"
     inkscape:window-maximized="1"
     inkscape:current-layer="layer1" />
  <defs
     id="defs2">
    <rect
       x="211.88857"
       y="290.08554"
       width="217.77435"
       height="203.05988"
       id="rect1581" />
    <rect
       x="0"
       y="275.87347"
       width="793.70081"
       height="480.40036"
       id="rect1517" />
  </defs>
  <g
     inkscape:label="Layer 1"
     inkscape:groupmode="layer"
     id="layer1"
     transform="translate(-32.635496,-77.260457)">
    <g
       aria-label="啓"
       id="text1587"
       style="font-size:50.8px;font-family:CRPＣ＆Ｇ流麗太行書体;-inkscape-font-specification:CRPＣ＆Ｇ流麗太行書体;stroke-width:3.18241;paint-order:stroke fill markers">
      <path
         d="m 78.609495,106.08311 q -3.175,0 -7.747,-0.4445 -4.5085,-0.4445 -5.6515,-1.27 -0.508,-0.4445 -3.175,-3.048 -2.6035,-2.603503 -4.191,-4.064003 -0.4445,0.254 -0.8255,0.5715 -0.381,0.254 -0.5715,0.4445 -3.048,1.905003 -5.143499,2.667003 -2.032,0.762 -4.064,0.762 l -0.1905,-0.635 q 2.2225,-0.762 4.5085,-2.159003 2.349499,-1.4605 4.254499,-3.175 -0.6985,-0.508 -1.397,-0.762 -0.635,-0.3175 -1.3335,-0.508 -0.507999,-0.1905 -0.888999,-0.5715 -0.381,-0.4445 -0.5715,-0.8255 -0.127,-0.381 0.127,-0.5715 0.254,-0.254 0.9525,-0.0635 1.587499,0.1905 2.793999,0.508 1.27,0.254 2.3495,0.762 0.1905,-0.3175 0.4445,-0.889 0.254,-0.635 0.381,-0.762 0.508,-0.889 0.508,-1.524 0.0635,-0.6985 -1.016,-1.7145 -0.127,-0.127 -0.1905,-0.254 -0.0635,-0.127 -0.0635,-0.1905 -1.778,0.762 -3.175,1.5875 -1.3335,0.762 -1.968499,1.397 -0.3175,0.1905 -1.016,0 -0.6985,-0.254 -1.27,-0.762 -0.508,-0.508 -0.508,-1.016 0,-0.508 0.8255,-0.762 0.254,-0.127 0.4445,-0.254 0.254,-0.127 0.5715,-0.1905 1.714499,-1.4605 3.047999,-4.953 1.3335,-3.556 0.3175,-5.1435 -0.508,-0.8255 0.127,-0.9525 0.635,-0.1905 1.778,0.254 1.143,0.4445 1.8415,1.27 0.6985,0.8255 0.4445,1.8415 -0.254,0.508 -1.4605,2.6035 -1.143,2.032 -2.3495,3.683 2.286,-1.016 4.064,-1.8415 1.778,-0.8255 2.6035,-1.4605 0.6985,-0.5715 1.0795,-0.635 0.381,-0.0635 1.3335,0.0635 0.4445,0 1.27,0.381 0.8255,0.3175 1.397,0.762 0.635,0.381 0.635,0.889 0,0.4445 -0.889,0.762 -1.524,0 -3.302,0.381 -1.7145,0.381 -3.429,1.143 1.5875,0.889 2.413,2.2225 0.889,1.27 -0.0635,2.794 -0.254,0.254 -0.889,0.9525 -0.635,0.6985 -1.397,1.4605 1.3335,0.8255 2.794,1.905 1.524,1.016 3.683,2.54 1.4605,1.079503 5.588,3.492503 4.191,2.3495 5.969,2.667 z M 47.113496,82.842107 q 0.762,0.6985 0.3175,1.778 -0.4445,1.016 -1.27,1.016 -1.9685,-0.127 -4.064,0.3175 -2.0955,0.4445 -3.3655,0.1905 0.9525,-0.5715 1.7145,-0.762 0.762,-0.254 0.508,-0.3175 -0.1905,-0.127 -1.2065,-0.508 -1.016,-0.381 -1.5875,-0.6985 -0.508,-0.381 -0.4445,-0.6985 0.0635,-0.381 1.2065,-0.5715 2.0955,-0.5715 4.699,-0.508 2.6035,0 3.4925,0.762 z m 1.778,7.874 q -0.889,0.1905 -1.905,0.9525 -0.9525,0.6985 -2.54,1.778 0,0 0.1905,0 0.1905,-0.0635 0.254,-0.0635 0.254,0 0.381,0.1905 0.1905,0.127 0.254,0.4445 0.0635,0.3175 0,0.5715 -0.0635,0.254 -0.1905,0.381 -0.1905,0.127 -2.54,1.2065 -2.3495,1.016 -3.175,1.3335 -0.127,0 -0.3175,0 -0.127,0 -0.127,0 -0.254,0.9525 -0.4445,1.524 -0.1905,0.5715 -0.4445,1.143003 -0.6985,1.2065 -2.7305,4.3815 -1.9685,3.175 -2.2225,4.064 l -0.6985,-0.127 q 1.016,-3.302 2.6035,-8.509003 1.5875,-5.2705 1.3335,-7.239 -0.6985,-0.0635 -1.397,-0.127 -0.635,-0.127 -1.143,-0.3175 -0.508,-0.1905 -0.5715,-0.381 0,-0.1905 0.762,-0.4445 2.2225,-0.9525 7.3025,-2.413 5.1435,-1.524 6.604,-1.27 0.8255,0.508 1.016,1.7145 0.254,1.2065 -0.254,1.2065 z m -5.1435,-0.254 q -0.508,0 -1.397,0.381 -0.8255,0.381 -2.159,0.9525 0,0.127 0,0.1905 0,0.0635 0,0.254 0,0.3175 -0.381,1.3335 -0.3175,1.016 -0.381,1.5875 0.508,-0.1905 1.27,-0.5715 0.762,-0.381 1.0795,-0.5715 0.6985,-0.8255 1.524,-2.159 0.889,-1.397 0.4445,-1.397 z m 18.795999,18.415003 q -0.8255,0.5715 -3.048,2.7305 -2.159,2.159 -1.8415,2.286 0.889,0.5715 0.9525,1.5875 0.0635,1.016 -1.2065,1.2065 -0.3175,0 -2.7305,-0.1905 -2.412999,-0.1905 -3.873499,0.127 0.3175,1.3335 0,1.905 -0.3175,0.508 -1.0795,0.3175 -0.6985,-0.1905 -1.524,-0.762 -0.762,-0.635 -1.143,-1.3335 -0.3175,-1.7145 -2.286,-4.953 -1.905,-3.2385 -3.2385,-3.81 -0.889,-0.889 -0.762,-1.3335 0.1905,-0.508 0.9525,-0.5715 0.762,-0.0635 1.651,0.1905 0.889,0.254 1.397,0.762 0.0635,0.0635 5.334,-0.5715 5.270499,-0.6985 6.032499,-0.9525 0.8255,-0.762 2.54,-0.889 1.778,-0.127 2.286,0.254 0.508,0.1905 1.3335,1.8415 0.889,1.651 0.254,2.159 z m -6.9215,-0.762 q -2.286,0 -4.190999,0.381 -1.8415,0.3175 -2.9845,0.8255 -0.1905,0 -0.762,0.127 -0.508,0.0635 -0.8255,0.0635 0.508,0.508 1.3335,2.0955 0.889,1.5875 1.2065,2.0955 0.889,0.0635 2.032,0.0635 1.143,0 1.143,-0.127 0,-0.127 1.904999,-2.794 1.905,-2.7305 1.143,-2.7305 z"
         id="path1589" />
    </g>
  </g>
</svg>
