<?xml version="1.0" encoding="UTF-8" standalone="no"?>
<!-- Created with Inkscape (http://www.inkscape.org/) -->

<svg
   width="95.691772mm"
   height="127.04525mm"
   viewBox="0 0 95.691774 127.04525"
   version="1.1"
   id="svg5"
   xml:space="preserve"
   inkscape:version="1.2.2 (732a01da63, 2022-12-09)"
   sodipodi:docname="KEIAppLab.svg"
   xmlns:inkscape="http://www.inkscape.org/namespaces/inkscape"
   xmlns:sodipodi="http://sodipodi.sourceforge.net/DTD/sodipodi-0.dtd"
   xmlns="http://www.w3.org/2000/svg"
   xmlns:svg="http://www.w3.org/2000/svg"><sodipodi:namedview
     id="namedview7"
     pagecolor="#ffffff"
     bordercolor="#000000"
     borderopacity="0.25"
     inkscape:showpageshadow="2"
     inkscape:pageopacity="0.0"
     inkscape:pagecheckerboard="0"
     inkscape:deskcolor="#d1d1d1"
     inkscape:document-units="mm"
     showgrid="false"
     inkscape:zoom="0.2973261"
     inkscape:cx="1308.3278"
     inkscape:cy="1015.7198"
     inkscape:window-width="1920"
     inkscape:window-height="1009"
     inkscape:window-x="-8"
     inkscape:window-y="-8"
     inkscape:window-maximized="1"
     inkscape:current-layer="layer1" /><defs
     id="defs2" /><g
     inkscape:groupmode="layer"
     id="layer2"
     inkscape:label="Layer 2"
     style="display:none"
     transform="translate(0,-29.365905)" /><g
     inkscape:label="Layer 1"
     inkscape:groupmode="layer"
     id="layer1"
     transform="translate(366.2161,180.79934)"
     style="display:inline"><path
       style="fill:#000000;stroke-width:0.999998"
       d="m -324.96439,-53.905875 c -0.25706,-0.415922 0.92026,-2.865986 3.8358,-7.982519 2.6469,-4.645079 4.51884,-8.047562 5.44761,-9.901657 0.74868,-1.4946 0.86695,-1.417114 -1.21868,-0.798432 -3.9099,1.159835 -9.34332,1.702201 -13.4059,1.338184 -3.24507,-0.290764 -5.15679,-0.972876 -6.73206,-2.402023 -1.02389,-0.928918 -1.6542,-1.975981 -3.6744,-6.103828 -0.90674,-1.852744 -1.79306,-3.464247 -2.13871,-3.888615 -0.92241,-1.132462 -1.0234,-1.341786 -1.17164,-2.428299 -0.092,-0.674028 -0.25552,-1.195176 -0.48294,-1.538841 -0.6116,-0.924173 -0.51558,-1.463256 0.36882,-2.07086 0.96843,-0.665329 9.17292,-5.048355 14.03569,-7.498191 2.51768,-1.268396 6.38784,-3.107554 8.60036,-4.087014 2.21251,-0.97947 5.53817,-2.49898 7.39035,-3.3767 2.93628,-1.39145 3.4825,-1.60508 4.26459,-1.66786 1.19684,-0.0961 1.7684,0.12112 6.21015,2.35978 6.23881,3.14438 7.68584,4.345165 8.14335,6.757579 0.20943,1.10434 -0.10033,2.567345 -1.04189,4.920886 -0.20426,0.510561 -0.34758,0.952087 -0.31849,0.981173 0.0769,0.07695 2.29722,-1.346454 4.21224,-2.700435 4.55256,-3.218797 7.07952,-5.705108 8.33125,-8.197233 0.5693,-1.13347 0.57348,-1.58065 0.0246,-2.63004 -1.87266,-3.58023 -5.56004,-7.886 -10.0578,-11.74456 -1.99693,-1.71314 -6.52083,-5.36444 -7.15407,-5.77417 l -0.38431,-0.24866 -1.20963,1.01605 c -5.35107,4.49475 -10.47307,7.8518 -14.66693,9.61296 -1.9349,0.81254 -3.71293,1.29808 -5.14629,1.40535 -2.08428,0.15599 -3.84347,-0.68122 -4.91499,-2.33907 -0.86079,-1.33181 -0.98744,-2.05541 -0.61541,-3.51617 0.38938,-1.52893 1.7928,-3.80893 2.13074,-3.46162 0.13559,0.13935 0.24298,0.6727 0.64054,3.18136 0.25457,1.60631 0.54264,2.15545 1.31291,2.50279 0.88896,0.40087 1.72743,0.22426 3.75075,-0.79002 3.459,-1.73398 8.29759,-5.31788 13.31042,-9.8589 0.72084,-0.65299 0.74395,-0.69476 0.48804,-0.88189 -0.43263,-0.31634 -2.29354,-0.85313 -3.58289,-1.0335 -2.09006,-0.29239 -4.44072,0.10605 -8.70134,1.4749 -1.24428,0.39976 -2.37263,0.67124 -2.98681,0.71863 -0.89252,0.0689 -1.01681,0.0464 -1.29757,-0.23434 -1.15709,-1.15709 1.98325,-3.59348 6.61176,-5.12965 2.30313,-0.7644 3.44981,-0.98674 5.54449,-1.07508 2.81839,-0.11886 4.94284,0.30576 7.57765,1.51456 l 0.94211,0.43223 0.63187,-0.61274 c 1.6455,-1.59571 4.64807,-5.53415 6.70656,-8.79695 1.16631,-1.84865 2.87194,-5.17582 3.25041,-6.34058 0.51801,-1.59422 0.54518,-3.50339 0.0582,-4.09017 -0.25917,-0.31228 -0.30248,-0.29831 -8.57787,2.76639 -3.15975,1.17018 -7.10148,2.85828 -8.60036,3.68323 -1.87883,1.03406 -4.264,2.73867 -5.47926,3.91587 -0.68664,0.66513 -1.38478,1.27963 -1.55143,1.36555 -0.41775,0.21539 -1.62432,0.196 -2.16366,-0.0348 -0.62902,-0.26914 -1.13527,-0.85499 -1.63733,-1.89477 -0.23811,-0.49314 -0.73026,-1.30237 -1.09367,-1.79827 -0.85459,-1.1662 -0.97518,-1.41057 -0.97518,-1.9761 0,-0.63812 0.38771,-1.00858 1.27347,-1.21682 0.98905,-0.23253 1.29871,-0.40304 2.52832,-1.39221 2.02227,-1.62683 4.24955,-4.6307 5.75423,-7.76055 1.6381,-3.40736 2.59502,-7.2459 3.1552,-12.65654 0.48571,-4.69142 -0.20608,-7.81319 -2.47729,-11.17908 -1.445,-2.14146 -1.59704,-3.18551 -0.52833,-3.62819 0.70469,-0.29188 1.58699,0.008 3.72796,1.26897 3.79538,2.23459 8.00609,6.44685 8.61365,8.61683 0.1048,0.37432 0.15498,1.12388 0.12418,1.85518 -0.0505,1.20005 -0.0893,1.32026 -1.76071,5.45789 -3.15146,7.80154 -4.68375,11.26067 -5.94777,13.42699 -0.1912,0.32769 -0.31144,0.63201 -0.26719,0.67626 0.10919,0.10919 0.75295,-0.16124 3.29855,-1.38566 6.08013,-2.92452 9.93905,-5.23772 12.34428,-7.39967 1.34308,-1.20723 1.8099,-1.39071 2.79557,-1.09882 1.0404,0.3081 2.32732,1.34164 4.38824,3.52421 2.31942,2.45635 3.33025,3.6762 4.38843,5.29594 1.09551,1.67688 1.45227,2.63047 1.45227,3.88177 0,0.83781 -0.066,1.08595 -0.52503,1.97293 -0.57208,1.10553 -2.24756,3.43859 -3.96244,5.5176 -1.13345,1.37414 -5.69839,6.29789 -6.49776,7.00851 -3.58742,3.18912 -4.58097,4.04849 -5.77229,4.99274 -0.77004,0.61035 -1.40325,1.14993 -1.40714,1.19907 -0.01,0.12177 3.57998,2.98747 5.54519,4.4269 3.80981,2.79051 6.94842,4.69087 11.71782,7.09488 6.07387,3.06153 6.46378,3.63337 8.58792,12.59472 0.846,3.569118 1.05272,4.81058 1.05097,6.311553 -0.003,2.903897 -1.09555,4.844827 -3.67413,6.529451 -3.28222,2.144336 -12.73603,6.416357 -20.53055,9.27742 -1.37291,0.503943 -2.71468,1.004291 -2.98171,1.111886 -0.67475,0.271876 -2.53205,0.920746 -5.55653,1.941237 -1.41578,0.4777 -2.69543,0.933976 -2.84367,1.01395 -0.14823,0.07997 -0.76889,0.872497 -1.37924,1.761171 -1.24388,1.811109 -2.4317,3.464666 -7.14384,9.944966 -3.85611,5.303051 -4.59392,6.248144 -5.88939,7.543955 -1.77076,1.771231 -4.06989,3.028034 -4.44097,2.427617 z m -2.28612,-23.507051 c 1.21353,-0.216514 4.75783,-1.205569 6.08653,-1.698473 3.69395,-1.370349 9.48941,-4.07922 10.38486,-4.854008 0.39737,-0.343834 0.55472,-0.708727 1.21706,-2.822407 0.80079,-2.55553 1.81657,-6.090446 2.20121,-7.660236 0.27706,-1.130718 0.20666,-1.315078 -0.95488,-2.500671 -0.54896,-0.56033 -0.88721,-0.797613 -1.137,-0.797613 -0.60824,0 -1.9681,0.406947 -4.44887,1.331348 -5.31761,1.981481 -9.96646,4.410136 -18.24414,9.531107 -1.42989,0.884597 -3.13089,1.904087 -3.77999,2.26553 -0.64912,0.361443 -1.1802,0.708423 -1.1802,0.771061 0,0.212886 1.50183,2.145736 2.73801,3.523819 1.43265,1.597096 2.62339,2.600344 3.42308,2.884083 0.71983,0.2554 2.34587,0.267045 3.69433,0.02646 z m -38.84638,-15.478017 c -0.29747,-0.183842 -0.0448,-0.992924 0.83184,-2.663711 4.58647,-8.741346 8.81819,-17.948176 11.99295,-26.092706 0.44022,-1.12934 0.77443,-2.07933 0.74267,-2.11108 -0.0318,-0.0318 -0.42901,0.0949 -0.88279,0.28143 -1.42099,0.58414 -1.88486,0.49659 -4.3473,-0.82044 -1.16154,-0.62125 -1.68527,-0.98852 -1.9767,-1.38618 -0.746,-1.01793 -0.41536,-1.74676 0.79353,-1.74916 0.87157,-0.002 1.71374,-0.3927 3.70785,-1.72134 3.08826,-2.05765 5.36105,-4.21234 8.2057,-7.77931 5.15243,-6.46077 8.23445,-12.73365 8.82478,-17.96125 0.17919,-1.58676 0.10638,-3.85193 -0.145,-4.51066 -0.0873,-0.22887 -0.5272,-0.79067 -0.97746,-1.24843 -1.36399,-1.3867 -1.8163,-2.89228 -1.08777,-3.6208 0.3139,-0.31392 0.43674,-0.35004 0.91542,-0.26916 0.48654,0.0822 2.96952,1.22945 5.93048,2.74016 1.60075,0.81672 2.64531,1.67224 3.31333,2.71373 1.70261,2.65447 1.56619,4.63578 -0.61319,8.90558 -1.12046,2.1952 -2.69567,4.78196 -4.54317,7.46065 -0.85552,1.24043 -1.5555,2.28404 -1.5555,2.31913 0,0.11556 0.46377,-0.11062 2.07203,-1.01056 3.0203,-1.69007 5.37565,-2.80894 6.09167,-2.89374 0.95365,-0.11295 2.01887,0.39214 3.05013,1.44626 2.97209,3.03798 4.03065,6.61642 2.72146,9.19997 -1.01529,2.00358 -4.99167,6.71222 -9.42703,11.16304 -3.94756,3.96132 -7.33977,6.71454 -9.99151,8.10943 -1.37582,0.72373 -2.60202,0.53425 -3.58385,-0.55378 -0.64771,-0.71776 -1.08532,-1.64682 -1.46569,-3.11165 -0.15668,-0.6034 -0.30696,-1.11918 -0.33396,-1.14617 -0.0269,-0.027 -1.0522,1.96483 -2.27824,4.42626 -4.59041,9.21585 -8.05814,15.265484 -10.91422,19.040469 -1.77879,2.351113 -2.50202,2.951513 -3.22608,2.678207 -0.32112,-0.121204 -0.54519,-0.10827 -1.03897,0.05998 -0.34626,0.117981 -0.70869,0.165606 -0.80541,0.105831 z m 24.40116,-29.501257 c 2.44128,-1.4219 4.28168,-3.33346 6.52102,-6.77318 1.56789,-2.40834 4.22126,-7.98246 3.89559,-8.18374 -0.23711,-0.14654 -5.0151,2.18488 -8.11561,3.96003 -3.30602,1.8928 -6.31097,4.08295 -6.9591,5.07213 -0.45783,0.69875 -0.15688,1.57242 1.20817,3.5072 0.77631,1.10031 2.38039,2.78823 2.64975,2.78823 0.0901,0 0.45016,-0.1668 0.80018,-0.37067 z"
       id="path599" /></g></svg>
